<svg width="36" height="20" viewBox="0 0 36 20" fill="none" xmlns="http://www.w3.org/2000/svg">
<path d="M24.875 3.75H21.75V3.125C21.75 2.62772 21.5525 2.15081 21.2008 1.79917C20.8492 1.44754 20.3723 1.25 19.875 1.25H16.125C15.6277 1.25 15.1508 1.44754 14.7992 1.79917C14.4475 2.15081 14.25 2.62772 14.25 3.125V3.75H11.125C10.9592 3.75 10.8003 3.81585 10.6831 3.93306C10.5658 4.05027 10.5 4.20924 10.5 4.375C10.5 4.54076 10.5658 4.69973 10.6831 4.81694C10.8003 4.93415 10.9592 5 11.125 5H11.75V16.25C11.75 16.5815 11.8817 16.8995 12.1161 17.1339C12.3505 17.3683 12.6685 17.5 13 17.5H23C23.3315 17.5 23.6495 17.3683 23.8839 17.1339C24.1183 16.8995 24.25 16.5815 24.25 16.25V5H24.875C25.0408 5 25.1997 4.93415 25.3169 4.81694C25.4342 4.69973 25.5 4.54076 25.5 4.375C25.5 4.20924 25.4342 4.05027 25.3169 3.93306C25.1997 3.81585 25.0408 3.75 24.875 3.75ZM15.5 3.125C15.5 2.95924 15.5658 2.80027 15.6831 2.68306C15.8003 2.56585 15.9592 2.5 16.125 2.5H19.875C20.0408 2.5 20.1997 2.56585 20.3169 2.68306C20.4342 2.80027 20.5 2.95924 20.5 3.125V3.75H15.5V3.125ZM23 16.25H13V5H23V16.25ZM16.75 8.125V13.125C16.75 13.2908 16.6842 13.4497 16.5669 13.5669C16.4497 13.6842 16.2908 13.75 16.125 13.75C15.9592 13.75 15.8003 13.6842 15.6831 13.5669C15.5658 13.4497 15.5 13.2908 15.5 13.125V8.125C15.5 7.95924 15.5658 7.80027 15.6831 7.68306C15.8003 7.56585 15.9592 7.5 16.125 7.5C16.2908 7.5 16.4497 7.56585 16.5669 7.68306C16.6842 7.80027 16.75 7.95924 16.75 8.125ZM20.5 8.125V13.125C20.5 13.2908 20.4342 13.4497 20.3169 13.5669C20.1997 13.6842 20.0408 13.75 19.875 13.75C19.7092 13.75 19.5503 13.6842 19.4331 13.5669C19.3158 13.4497 19.25 13.2908 19.25 13.125V8.125C19.25 7.95924 19.3158 7.80027 19.4331 7.68306C19.5503 7.56585 19.7092 7.5 19.875 7.5C20.0408 7.5 20.1997 7.56585 20.3169 7.68306C20.4342 7.80027 20.5 7.95924 20.5 8.125Z" fill="#878A8F"/>
</svg>
