<svg width="25" height="26" viewBox="0 0 25 26" fill="none" xmlns="http://www.w3.org/2000/svg">
<path d="M20.8652 8.5412L15.3965 3.07245C15.3239 2.99992 15.2377 2.94241 15.1429 2.9032C15.048 2.86399 14.9464 2.84385 14.8438 2.84393H5.46875C5.05435 2.84393 4.65692 3.00855 4.3639 3.30158C4.07087 3.5946 3.90625 3.99203 3.90625 4.40643V21.5939C3.90625 22.0083 4.07087 22.4058 4.3639 22.6988C4.65692 22.9918 5.05435 23.1564 5.46875 23.1564H19.5312C19.9457 23.1564 20.3431 22.9918 20.6361 22.6988C20.9291 22.4058 21.0938 22.0083 21.0938 21.5939V9.09393C21.0938 8.99131 21.0737 8.88967 21.0345 8.79483C20.9953 8.69999 20.9378 8.61381 20.8652 8.5412ZM15.625 5.51093L18.4268 8.31268H15.625V5.51093ZM19.5312 21.5939H5.46875V4.40643H14.0625V9.09393C14.0625 9.30113 14.1448 9.49985 14.2913 9.64636C14.4378 9.79287 14.6365 9.87518 14.8438 9.87518H19.5312V21.5939ZM15.3965 13.5529L13.6045 15.3439L15.3965 17.1349C15.4691 17.2075 15.5266 17.2937 15.5659 17.3885C15.6052 17.4834 15.6254 17.585 15.6254 17.6877C15.6254 17.7903 15.6052 17.892 15.5659 17.9868C15.5266 18.0817 15.4691 18.1678 15.3965 18.2404C15.3239 18.313 15.2377 18.3706 15.1429 18.4099C15.048 18.4491 14.9464 18.4694 14.8438 18.4694C14.7411 18.4694 14.6395 18.4491 14.5446 18.4099C14.4498 18.3706 14.3636 18.313 14.291 18.2404L12.5 16.4484L10.709 18.2404C10.6364 18.313 10.5502 18.3706 10.4554 18.4099C10.3605 18.4491 10.2589 18.4694 10.1562 18.4694C10.0536 18.4694 9.95195 18.4491 9.85711 18.4099C9.76227 18.3706 9.6761 18.313 9.60352 18.2404C9.53093 18.1678 9.47335 18.0817 9.43407 17.9868C9.39478 17.892 9.37457 17.7903 9.37457 17.6877C9.37457 17.585 9.39478 17.4834 9.43407 17.3885C9.47335 17.2937 9.53093 17.2075 9.60352 17.1349L11.3955 15.3439L9.60352 13.5529C9.45692 13.4063 9.37457 13.2075 9.37457 13.0002C9.37457 12.7929 9.45692 12.594 9.60352 12.4474C9.75011 12.3009 9.94893 12.2185 10.1562 12.2185C10.3636 12.2185 10.5624 12.3009 10.709 12.4474L12.5 14.2394L14.291 12.4474C14.3636 12.3749 14.4498 12.3173 14.5446 12.278C14.6395 12.2387 14.7411 12.2185 14.8438 12.2185C14.9464 12.2185 15.048 12.2387 15.1429 12.278C15.2377 12.3173 15.3239 12.3749 15.3965 12.4474C15.4691 12.52 15.5266 12.6062 15.5659 12.701C15.6052 12.7959 15.6254 12.8975 15.6254 13.0002C15.6254 13.1028 15.6052 13.2045 15.5659 13.2993C15.5266 13.3942 15.4691 13.4803 15.3965 13.5529Z" fill="#121619"/>
</svg>
