<svg width="25" height="26" viewBox="0 0 25 26" fill="none" xmlns="http://www.w3.org/2000/svg">
<path d="M20.8652 8.54126L15.3965 3.07251C15.3239 2.99998 15.2377 2.94247 15.1429 2.90326C15.048 2.86405 14.9464 2.84391 14.8438 2.84399H5.46875C5.05435 2.84399 4.65692 3.00861 4.3639 3.30164C4.07087 3.59467 3.90625 3.99209 3.90625 4.40649V21.594C3.90625 22.0084 4.07087 22.4058 4.3639 22.6988C4.65692 22.9919 5.05435 23.1565 5.46875 23.1565H19.5312C19.9457 23.1565 20.3431 22.9919 20.6361 22.6988C20.9291 22.4058 21.0938 22.0084 21.0938 21.594V9.09399C21.0938 8.99137 21.0737 8.88973 21.0345 8.79489C20.9953 8.70005 20.9378 8.61387 20.8652 8.54126ZM15.625 5.51099L18.4268 8.31274H15.625V5.51099ZM19.5312 21.594H5.46875V4.40649H14.0625V9.09399C14.0625 9.30119 14.1448 9.49991 14.2913 9.64642C14.4378 9.79293 14.6365 9.87524 14.8438 9.87524H19.5312V21.594ZM15.3965 14.01C15.4691 14.0826 15.5266 14.1688 15.5659 14.2636C15.6052 14.3584 15.6254 14.4601 15.6254 14.5627C15.6254 14.6654 15.6052 14.767 15.5659 14.8619C15.5266 14.9567 15.4691 15.0429 15.3965 15.1155C15.3239 15.1881 15.2377 15.2456 15.1429 15.2849C15.048 15.3242 14.9464 15.3444 14.8438 15.3444C14.7411 15.3444 14.6395 15.3242 14.5446 15.2849C14.4498 15.2456 14.3636 15.1881 14.291 15.1155L13.2812 14.1047V18.469C13.2812 18.6762 13.1989 18.8749 13.0524 19.0214C12.9059 19.1679 12.7072 19.2502 12.5 19.2502C12.2928 19.2502 12.0941 19.1679 11.9476 19.0214C11.8011 18.8749 11.7188 18.6762 11.7188 18.469V14.1047L10.709 15.1155C10.6364 15.1881 10.5502 15.2456 10.4554 15.2849C10.3605 15.3242 10.2589 15.3444 10.1562 15.3444C10.0536 15.3444 9.95195 15.3242 9.85711 15.2849C9.76227 15.2456 9.6761 15.1881 9.60352 15.1155C9.53093 15.0429 9.47335 14.9567 9.43407 14.8619C9.39478 14.767 9.37457 14.6654 9.37457 14.5627C9.37457 14.4601 9.39478 14.3584 9.43407 14.2636C9.47335 14.1688 9.53093 14.0826 9.60352 14.01L11.9473 11.6663C12.0198 11.5936 12.106 11.536 12.2008 11.4967C12.2957 11.4574 12.3973 11.4371 12.5 11.4371C12.6027 11.4371 12.7043 11.4574 12.7992 11.4967C12.894 11.536 12.9802 11.5936 13.0527 11.6663L15.3965 14.01Z" fill="#566BE4"/>
</svg>
