<svg width="25" height="26" viewBox="0 0 25 26" fill="none" xmlns="http://www.w3.org/2000/svg">
<path d="M20.8652 8.5412L15.3965 3.07245C15.3239 2.99992 15.2377 2.94241 15.1429 2.9032C15.048 2.86399 14.9464 2.84385 14.8438 2.84393H5.46875C5.05435 2.84393 4.65692 3.00855 4.3639 3.30158C4.07087 3.5946 3.90625 3.99203 3.90625 4.40643V21.5939C3.90625 22.0083 4.07087 22.4058 4.3639 22.6988C4.65692 22.9918 5.05435 23.1564 5.46875 23.1564H19.5312C19.9457 23.1564 20.3431 22.9918 20.6361 22.6988C20.9291 22.4058 21.0938 22.0083 21.0938 21.5939V9.09393C21.0938 8.99131 21.0737 8.88967 21.0345 8.79483C20.9953 8.69999 20.9378 8.61381 20.8652 8.5412ZM15.625 5.51093L18.4268 8.31268H15.625V5.51093ZM19.5312 21.5939H5.46875V4.40643H14.0625V9.09393C14.0625 9.30113 14.1448 9.49985 14.2913 9.64636C14.4378 9.79287 14.6365 9.87518 14.8438 9.87518H19.5312V21.5939ZM16.4062 13.7814C16.4062 13.9886 16.3239 14.1873 16.1774 14.3339C16.0309 14.4804 15.8322 14.5627 15.625 14.5627H9.375C9.1678 14.5627 8.96909 14.4804 8.82257 14.3339C8.67606 14.1873 8.59375 13.9886 8.59375 13.7814C8.59375 13.5742 8.67606 13.3755 8.82257 13.229C8.96909 13.0825 9.1678 13.0002 9.375 13.0002H15.625C15.8322 13.0002 16.0309 13.0825 16.1774 13.229C16.3239 13.3755 16.4062 13.5742 16.4062 13.7814ZM16.4062 16.9064C16.4062 17.1136 16.3239 17.3123 16.1774 17.4589C16.0309 17.6054 15.8322 17.6877 15.625 17.6877H9.375C9.1678 17.6877 8.96909 17.6054 8.82257 17.4589C8.67606 17.3123 8.59375 17.1136 8.59375 16.9064C8.59375 16.6992 8.67606 16.5005 8.82257 16.354C8.96909 16.2075 9.1678 16.1252 9.375 16.1252H15.625C15.8322 16.1252 16.0309 16.2075 16.1774 16.354C16.3239 16.5005 16.4062 16.6992 16.4062 16.9064Z" fill="#566BE4"/>
</svg>
