<svg width="24" height="24" viewBox="0 0 24 24" fill="none" xmlns="http://www.w3.org/2000/svg">
<path d="M14.2502 10.5C14.2502 10.6989 14.1712 10.8897 14.0305 11.0303C13.8899 11.171 13.6991 11.25 13.5002 11.25H11.2502V13.5C11.2502 13.6989 11.1712 13.8897 11.0305 14.0303C10.8899 14.171 10.6991 14.25 10.5002 14.25C10.3013 14.25 10.1105 14.171 9.96988 14.0303C9.82923 13.8897 9.75021 13.6989 9.75021 13.5V11.25H7.50021C7.3013 11.25 7.11054 11.171 6.96988 11.0303C6.82923 10.8897 6.75021 10.6989 6.75021 10.5C6.75021 10.3011 6.82923 10.1103 6.96988 9.96967C7.11054 9.82902 7.3013 9.75 7.50021 9.75H9.75021V7.5C9.75021 7.30109 9.82923 7.11032 9.96988 6.96967C10.1105 6.82902 10.3013 6.75 10.5002 6.75C10.6991 6.75 10.8899 6.82902 11.0305 6.96967C11.1712 7.11032 11.2502 7.30109 11.2502 7.5V9.75H13.5002C13.6991 9.75 13.8899 9.82902 14.0305 9.96967C14.1712 10.1103 14.2502 10.3011 14.2502 10.5ZM21.5308 21.5306C21.4612 21.6004 21.3785 21.6557 21.2874 21.6934C21.1964 21.7312 21.0988 21.7506 21.0002 21.7506C20.9017 21.7506 20.8041 21.7312 20.713 21.6934C20.622 21.6557 20.5392 21.6004 20.4696 21.5306L15.7765 16.8366C14.1431 18.1971 12.048 18.8755 9.92715 18.7307C7.80629 18.5859 5.82289 17.629 4.38956 16.0591C2.95623 14.4892 2.18333 12.4272 2.23163 10.3019C2.27993 8.17666 3.14571 6.15184 4.64888 4.64867C6.15205 3.1455 8.17687 2.27971 10.3021 2.23141C12.4274 2.18311 14.4894 2.95602 16.0593 4.38935C17.6293 5.82268 18.5861 7.80607 18.7309 9.92694C18.8757 12.0478 18.1973 14.1429 16.8368 15.7763L21.5308 20.4694C21.6006 20.539 21.6559 20.6217 21.6936 20.7128C21.7314 20.8038 21.7508 20.9014 21.7508 21C21.7508 21.0986 21.7314 21.1962 21.6936 21.2872C21.6559 21.3783 21.6006 21.461 21.5308 21.5306ZM10.5002 17.25C11.8352 17.25 13.1403 16.8541 14.2503 16.1124C15.3603 15.3707 16.2255 14.3165 16.7364 13.0831C17.2473 11.8497 17.381 10.4925 17.1205 9.18314C16.8601 7.87377 16.2172 6.67103 15.2732 5.72703C14.3292 4.78303 13.1264 4.14015 11.8171 3.8797C10.5077 3.61925 9.1505 3.75292 7.9171 4.26381C6.6837 4.77471 5.62949 5.63987 4.88779 6.7499C4.14609 7.85993 3.75021 9.16498 3.75021 10.5C3.7522 12.2896 4.464 14.0053 5.72944 15.2708C6.99488 16.5362 8.71061 17.248 10.5002 17.25Z" fill="black"/>
</svg>
