<svg width="22" height="22" viewBox="0 0 22 22" fill="none" xmlns="http://www.w3.org/2000/svg">
<path d="M19.25 10.9988C19.2502 13.1677 18.3962 15.2495 16.873 16.7936C15.3497 18.3376 13.2796 19.2196 11.1109 19.2488H11C8.89302 19.254 6.86493 18.4477 5.33672 16.9972C5.27109 16.9351 5.21834 16.8608 5.18146 16.7783C5.14458 16.6958 5.12431 16.6069 5.1218 16.5166C5.11928 16.4263 5.13458 16.3364 5.16681 16.252C5.19904 16.1677 5.24758 16.0905 5.30965 16.0248C5.37172 15.9592 5.44611 15.9065 5.52857 15.8696C5.61102 15.8327 5.69994 15.8124 5.79023 15.8099C5.88053 15.8074 5.97043 15.8227 6.05482 15.8549C6.1392 15.8872 6.21641 15.9357 6.28203 15.9978C7.26498 16.9248 8.49929 17.5416 9.83076 17.7712C11.1622 18.0007 12.5318 17.8329 13.7685 17.2886C15.0051 16.7443 16.054 15.8477 16.784 14.7108C17.514 13.5739 17.8929 12.2471 17.8732 10.8961C17.8536 9.54514 17.4363 8.22991 16.6735 7.11472C15.9107 5.99952 14.8362 5.13382 13.5842 4.62574C12.3323 4.11767 10.9584 3.98975 9.63415 4.25797C8.30992 4.52619 7.09408 5.17865 6.13852 6.13386C6.13149 6.14145 6.12403 6.14862 6.11617 6.15534L3.83195 8.24878H6.1875C6.36984 8.24878 6.5447 8.32121 6.67364 8.45014C6.80257 8.57908 6.875 8.75394 6.875 8.93628C6.875 9.11862 6.80257 9.29348 6.67364 9.42242C6.5447 9.55135 6.36984 9.62378 6.1875 9.62378H2.0625C1.88016 9.62378 1.7053 9.55135 1.57636 9.42242C1.44743 9.29348 1.375 9.11862 1.375 8.93628V4.81128C1.375 4.62894 1.44743 4.45408 1.57636 4.32514C1.7053 4.19621 1.88016 4.12378 2.0625 4.12378C2.24484 4.12378 2.4197 4.19621 2.54864 4.32514C2.67757 4.45408 2.75 4.62894 2.75 4.81128V7.37222L5.17773 5.15503C6.33272 4.00453 7.80267 3.22201 9.40202 2.90624C11.0014 2.59048 12.6584 2.75563 14.164 3.38084C15.6696 4.00605 16.9561 5.0633 17.8613 6.41912C18.7665 7.77495 19.2498 9.36856 19.25 10.9988Z" fill="#121619"/>
</svg>
