<svg width="16" height="17" viewBox="0 0 16 17" fill="none" xmlns="http://www.w3.org/2000/svg">
<path d="M7.32816 10.37C7.99828 9.92387 8.50705 9.27393 8.77922 8.51628C9.05139 7.75864 9.07252 6.93352 8.83947 6.16294C8.60643 5.39236 8.13159 4.71723 7.48517 4.23739C6.83876 3.75755 6.05508 3.49848 5.25003 3.49848C4.44498 3.49848 3.66131 3.75755 3.01489 4.23739C2.36847 4.71723 1.89363 5.39236 1.66059 6.16294C1.42754 6.93352 1.44867 7.75864 1.72084 8.51628C1.99301 9.27393 2.50178 9.92387 3.17191 10.37C1.95971 10.8168 0.924472 11.6435 0.220656 12.7269C0.183666 12.7819 0.157972 12.8436 0.145069 12.9086C0.132166 12.9736 0.132311 13.0405 0.145494 13.1055C0.158678 13.1704 0.184638 13.2321 0.221865 13.2869C0.259092 13.3417 0.306844 13.3886 0.362345 13.4248C0.417846 13.461 0.479989 13.4858 0.545161 13.4978C0.610334 13.5097 0.677236 13.5086 0.741979 13.4945C0.806721 13.4804 0.868014 13.4536 0.922292 13.4156C0.976571 13.3776 1.02275 13.3291 1.05816 13.2731C1.51215 12.5749 2.13338 12.0011 2.86543 11.6039C3.59748 11.2066 4.41716 10.9986 5.25003 10.9986C6.0829 10.9986 6.90258 11.2066 7.63463 11.6039C8.36668 12.0011 8.98791 12.5749 9.44191 13.2731C9.51524 13.3821 9.62852 13.4579 9.75727 13.484C9.88601 13.5101 10.0199 13.4846 10.1299 13.4128C10.2399 13.341 10.3173 13.2288 10.3453 13.1005C10.3733 12.9721 10.3496 12.8379 10.2794 12.7269C9.57559 11.6435 8.54035 10.8168 7.32816 10.37ZM2.50003 7.25C2.50003 6.7061 2.66132 6.17442 2.96349 5.72218C3.26566 5.26995 3.69515 4.91747 4.19765 4.70933C4.70015 4.50119 5.25308 4.44673 5.78653 4.55284C6.31998 4.65895 6.80998 4.92086 7.19457 5.30546C7.57917 5.69005 7.84108 6.18005 7.94719 6.7135C8.0533 7.24695 7.99884 7.79988 7.7907 8.30238C7.58256 8.80488 7.23008 9.23437 6.77785 9.53654C6.32561 9.83871 5.79393 10 5.25003 10C4.52094 9.99917 3.82195 9.70918 3.3064 9.19363C2.79085 8.67808 2.50086 7.97909 2.50003 7.25ZM15.6338 13.4187C15.5227 13.4912 15.3874 13.5165 15.2577 13.4892C15.1279 13.4619 15.0144 13.3842 14.9419 13.2731C14.4885 12.5744 13.8673 12.0004 13.1351 11.6034C12.4029 11.2063 11.583 10.9989 10.75 11C10.6174 11 10.4902 10.9473 10.3965 10.8536C10.3027 10.7598 10.25 10.6326 10.25 10.5C10.25 10.3674 10.3027 10.2402 10.3965 10.1464C10.4902 10.0527 10.6174 10 10.75 10C11.155 9.99962 11.5549 9.90979 11.9212 9.73695C12.2874 9.5641 12.6109 9.31249 12.8687 9.00011C13.1264 8.68772 13.312 8.32227 13.4121 7.92986C13.5122 7.53745 13.5244 7.12777 13.4478 6.73009C13.3713 6.33241 13.2078 5.95656 12.9692 5.62937C12.7305 5.30219 12.4225 5.03175 12.0672 4.8374C11.7119 4.64304 11.3181 4.52955 10.9139 4.50504C10.5096 4.48053 10.105 4.54561 9.72878 4.69562C9.66745 4.72214 9.60142 4.73609 9.53461 4.73665C9.46779 4.73722 9.40154 4.72439 9.33976 4.69891C9.27799 4.67344 9.22195 4.63584 9.17495 4.58834C9.12796 4.54084 9.09096 4.48441 9.06614 4.42237C9.04133 4.36033 9.0292 4.29394 9.03047 4.22714C9.03174 4.16033 9.0464 4.09446 9.07356 4.03341C9.10073 3.97236 9.13985 3.91737 9.18862 3.8717C9.2374 3.82603 9.29483 3.7906 9.35753 3.7675C10.2184 3.42416 11.176 3.4118 12.0455 3.73282C12.915 4.05383 13.6348 4.68547 14.066 5.50588C14.4973 6.3263 14.6094 7.27735 14.3808 8.17557C14.1523 9.07379 13.5991 9.85554 12.8282 10.37C14.0403 10.8168 15.0756 11.6435 15.7794 12.7269C15.8518 12.8379 15.8772 12.9732 15.8499 13.103C15.8226 13.2327 15.7448 13.3463 15.6338 13.4187Z" fill="black"/>
</svg>
